<svg width="760" height="520" viewBox="0 0 760 520" fill="none" xmlns="http://www.w3.org/2000/svg">
  <defs>
    <pattern id="diag-docs" patternUnits="userSpaceOnUse" width="12" height="12" patternTransform="rotate(45)">
      <line x1="0" y1="0" x2="0" y2="12" stroke="#E9E1D8" stroke-width="3.5"/>
    </pattern>
  </defs>

  <rect width="760" height="520" fill="#F1F5F2"/>
  <rect x="34" y="32" width="692" height="456" rx="24" fill="#FFFFFF" stroke="#DCE6E3"/>
  <rect x="34" y="32" width="692" height="42" fill="url(#diag-docs)"/>
  <rect x="34" y="446" width="692" height="42" fill="url(#diag-docs)"/>
  <line x1="256.5" y1="74" x2="256.5" y2="446" stroke="#DCE6E3"/>

  <rect x="72" y="108" width="146" height="84" rx="18" fill="#FFFFFF" stroke="#E2EBE8"/>
  <rect x="94" y="134" width="72" height="10" rx="5" fill="#111111"/>
  <rect x="94" y="160" width="84" height="8" rx="4" fill="#B5C6C0"/>

  <rect x="72" y="214" width="146" height="84" rx="18" fill="#FFFFFF" stroke="#E2EBE8"/>
  <rect x="94" y="240" width="84" height="10" rx="5" fill="#111111"/>
  <rect x="94" y="266" width="76" height="8" rx="4" fill="#B5C6C0"/>

  <rect x="72" y="320" width="146" height="92" rx="18" fill="#FFF2F0" stroke="#FFD8D2"/>
  <rect x="94" y="348" width="82" height="10" rx="5" fill="#111111"/>
  <rect x="94" y="374" width="92" height="8" rx="4" fill="#D7A7A0"/>

  <rect x="292" y="110" width="390" height="134" rx="22" fill="#FCFAF7" stroke="#E9E2DA"/>
  <rect x="324" y="144" width="128" height="12" rx="6" fill="#111111"/>
  <rect x="324" y="176" width="164" height="10" rx="5" fill="#C8BFB6"/>
  <rect x="324" y="208" width="204" height="10" rx="5" fill="#E3DAD1"/>
  <rect x="566" y="154" width="84" height="42" rx="14" fill="#FF4538"/>

  <rect x="292" y="270" width="390" height="142" rx="22" fill="#FFFFFF" stroke="#E9E2DA"/>
  <rect x="292" y="270" width="390" height="34" fill="url(#diag-docs)"/>
  <rect x="324" y="330" width="108" height="12" rx="6" fill="#111111"/>
  <rect x="324" y="362" width="182" height="10" rx="5" fill="#C8BFB6"/>
  <rect x="324" y="394" width="218" height="10" rx="5" fill="#E3DAD1"/>
  <rect x="558" y="326" width="88" height="28" rx="14" fill="#111111"/>
  <rect x="574" y="335" width="56" height="10" rx="5" fill="#FFFFFF"/>
</svg>
