<svg width="1440" height="860" viewBox="0 0 1440 860" fill="none" xmlns="http://www.w3.org/2000/svg">
  <rect width="1440" height="860" fill="#FCFBF8"/>
  <rect x="80" y="72" width="1280" height="716" rx="28" fill="white" stroke="#EAE4DC"/>
  <rect x="80" y="72" width="1280" height="84" rx="28" fill="#FBF7F2"/>
  <circle cx="126" cy="114" r="8" fill="#FF3B30"/>
  <circle cx="154" cy="114" r="8" fill="#E6DED5"/>
  <circle cx="182" cy="114" r="8" fill="#E6DED5"/>

  <rect x="112" y="188" width="270" height="564" rx="22" fill="#FAF7F3" stroke="#EEE7E0"/>
  <rect x="144" y="224" width="124" height="14" rx="7" fill="#111111"/>
  <rect x="144" y="258" width="96" height="10" rx="5" fill="#BFB8B1"/>
  <rect x="144" y="312" width="206" height="86" rx="18" fill="#FFFFFF" stroke="#ECE4DD"/>
  <rect x="168" y="340" width="118" height="12" rx="6" fill="#111111"/>
  <rect x="168" y="372" width="146" height="10" rx="5" fill="#D0C7BF"/>
  <rect x="144" y="424" width="206" height="86" rx="18" fill="#FFFFFF" stroke="#ECE4DD"/>
  <rect x="168" y="452" width="122" height="12" rx="6" fill="#111111"/>
  <rect x="168" y="484" width="132" height="10" rx="5" fill="#D0C7BF"/>
  <rect x="144" y="536" width="206" height="86" rx="18" fill="#FFFFFF" stroke="#ECE4DD"/>
  <rect x="168" y="564" width="112" height="12" rx="6" fill="#111111"/>
  <rect x="168" y="596" width="150" height="10" rx="5" fill="#D0C7BF"/>

  <rect x="414" y="188" width="626" height="564" rx="22" fill="#FFFFFF" stroke="#EEE7E0"/>
  <rect x="450" y="220" width="168" height="14" rx="7" fill="#111111"/>
  <rect x="450" y="252" width="98" height="10" rx="5" fill="#C3BBB4"/>

  <rect x="746" y="294" width="258" height="84" rx="22" fill="#111111"/>
  <rect x="778" y="324" width="122" height="10" rx="5" fill="#FFFFFF"/>
  <rect x="778" y="352" width="186" height="10" rx="5" fill="#676B73"/>

  <rect x="454" y="308" width="302" height="112" rx="22" fill="#FAF7F3" stroke="#EEE7E0"/>
  <rect x="486" y="340" width="162" height="12" rx="6" fill="#111111"/>
  <rect x="486" y="372" width="224" height="10" rx="5" fill="#CEC6BE"/>

  <rect x="454" y="444" width="392" height="140" rx="24" fill="#FFFFFF" stroke="#EEE7E0"/>
  <rect x="486" y="476" width="248" height="12" rx="6" fill="#111111"/>
  <rect x="486" y="510" width="316" height="10" rx="5" fill="#CEC6BE"/>
  <rect x="486" y="540" width="286" height="10" rx="5" fill="#E4DCD4"/>
  <rect x="486" y="574" width="164" height="42" rx="14" fill="#FF3B30"/>

  <rect x="878" y="444" width="126" height="140" rx="24" fill="#FFF1EF"/>
  <rect x="908" y="476" width="66" height="66" rx="20" fill="#FF3B30"/>
  <path d="M931 509H951" stroke="white" stroke-width="6" stroke-linecap="round"/>
  <path d="M941 499V519" stroke="white" stroke-width="6" stroke-linecap="round"/>

  <rect x="454" y="612" width="550" height="104" rx="24" fill="#FAF7F3" stroke="#EEE7E0"/>
  <rect x="486" y="646" width="162" height="12" rx="6" fill="#111111"/>
  <rect x="486" y="676" width="348" height="10" rx="5" fill="#D4CBC3"/>

  <rect x="1072" y="188" width="256" height="564" rx="22" fill="#FBF7F2" stroke="#EEE7E0"/>
  <rect x="1104" y="224" width="116" height="14" rx="7" fill="#111111"/>
  <rect x="1104" y="258" width="88" height="10" rx="5" fill="#C3BBB4"/>
  <rect x="1104" y="308" width="192" height="124" rx="22" fill="#FFFFFF" stroke="#EEE7E0"/>
  <rect x="1130" y="338" width="134" height="12" rx="6" fill="#111111"/>
  <rect x="1130" y="370" width="136" height="10" rx="5" fill="#CFC7BE"/>
  <rect x="1130" y="398" width="124" height="10" rx="5" fill="#E2DAD1"/>
  <rect x="1104" y="460" width="192" height="124" rx="22" fill="#FFFFFF" stroke="#EEE7E0"/>
  <rect x="1130" y="490" width="104" height="12" rx="6" fill="#111111"/>
  <rect x="1130" y="522" width="134" height="10" rx="5" fill="#CFC7BE"/>
  <rect x="1104" y="612" width="192" height="104" rx="22" fill="#FF3B30"/>
  <rect x="1132" y="642" width="128" height="10" rx="5" fill="#FFD5D1"/>
  <rect x="1132" y="672" width="104" height="10" rx="5" fill="#FFC0BA"/>
</svg>
