<svg width="1440" height="860" viewBox="0 0 1440 860" fill="none" xmlns="http://www.w3.org/2000/svg">
  <rect width="1440" height="860" fill="#FCFBF8"/>
  <rect x="74" y="64" width="1292" height="732" rx="24" fill="white" stroke="#E8E2DA"/>
  <rect x="74" y="64" width="1292" height="76" rx="24" fill="#FAF7F3"/>
  <circle cx="116" cy="101" r="8" fill="#FF3B30"/>
  <circle cx="144" cy="101" r="8" fill="#E6E0D8"/>
  <circle cx="172" cy="101" r="8" fill="#E6E0D8"/>
  <rect x="110" y="184" width="206" height="572" rx="18" fill="#FAF7F3" stroke="#EEE7E0"/>
  <rect x="138" y="218" width="150" height="14" rx="7" fill="#111111"/>
  <rect x="138" y="254" width="118" height="10" rx="5" fill="#C1BBB4"/>
  <rect x="138" y="306" width="150" height="48" rx="14" fill="#FF3B30"/>
  <rect x="138" y="380" width="150" height="10" rx="5" fill="#C1BBB4"/>
  <rect x="138" y="410" width="126" height="10" rx="5" fill="#D9D2CA"/>
  <rect x="138" y="458" width="150" height="10" rx="5" fill="#C1BBB4"/>
  <rect x="138" y="488" width="108" height="10" rx="5" fill="#D9D2CA"/>
  <rect x="138" y="536" width="150" height="10" rx="5" fill="#C1BBB4"/>
  <rect x="138" y="566" width="130" height="10" rx="5" fill="#D9D2CA"/>
  <rect x="356" y="184" width="458" height="206" rx="18" fill="#FFFFFF" stroke="#EEE7E0"/>
  <rect x="388" y="218" width="124" height="14" rx="7" fill="#111111"/>
  <rect x="388" y="250" width="84" height="10" rx="5" fill="#C1BBB4"/>
  <circle cx="596" cy="298" r="82" stroke="#E9E3DC" stroke-width="38"/>
  <path d="M596 216C632.313 216 666.7 230.911 690.932 257.356C715.163 283.801 727.056 319.35 723.588 355.497" stroke="#FF3B30" stroke-width="38" stroke-linecap="round"/>
  <path d="M723.432 355.94C717.291 378.67 705.04 399.29 687.969 415.596C670.898 431.901 649.62 443.068 626.525 447.859" stroke="#F39A57" stroke-width="38" stroke-linecap="round"/>
  <rect x="388" y="332" width="84" height="10" rx="5" fill="#D4CCC4"/>
  <rect x="388" y="358" width="122" height="10" rx="5" fill="#D4CCC4"/>
  <rect x="846" y="184" width="484" height="206" rx="18" fill="#FFFFFF" stroke="#EEE7E0"/>
  <rect x="878" y="218" width="116" height="14" rx="7" fill="#111111"/>
  <rect x="878" y="250" width="94" height="10" rx="5" fill="#C1BBB4"/>
  <rect x="904" y="316" width="42" height="38" rx="10" fill="#FFD2CE"/>
  <rect x="972" y="286" width="42" height="68" rx="10" fill="#FFAEA8"/>
  <rect x="1040" y="258" width="42" height="96" rx="10" fill="#FF7E75"/>
  <rect x="1108" y="298" width="42" height="56" rx="10" fill="#FF5A4F"/>
  <rect x="1176" y="238" width="42" height="116" rx="10" fill="#FF3B30"/>
  <rect x="356" y="420" width="974" height="336" rx="18" fill="#FFFFFF" stroke="#EEE7E0"/>
  <rect x="388" y="454" width="186" height="14" rx="7" fill="#111111"/>
  <rect x="388" y="486" width="108" height="10" rx="5" fill="#C1BBB4"/>
  <rect x="388" y="534" width="278" height="166" rx="18" fill="#FAF7F3" stroke="#EEE7E0"/>
  <path d="M420 642H632" stroke="#FF3B30" stroke-width="5" stroke-linecap="round"/>
  <path d="M420 612L468 590L510 604L552 548L594 566L632 520" stroke="#111111" stroke-width="4" stroke-linecap="round" stroke-linejoin="round"/>
  <rect x="694" y="534" width="290" height="166" rx="18" fill="#FAF7F3" stroke="#EEE7E0"/>
  <rect x="726" y="564" width="128" height="12" rx="6" fill="#D7CFC7"/>
  <rect x="726" y="596" width="220" height="12" rx="6" fill="#ECE5DE"/>
  <rect x="726" y="628" width="186" height="12" rx="6" fill="#ECE5DE"/>
  <rect x="1012" y="534" width="286" height="166" rx="18" fill="#FAF7F3" stroke="#EEE7E0"/>
  <rect x="1046" y="564" width="92" height="12" rx="6" fill="#111111"/>
  <rect x="1046" y="602" width="212" height="54" rx="14" fill="#FF3B30"/>
</svg>
