<svg width="1480" height="920" viewBox="0 0 1480 920" fill="none" xmlns="http://www.w3.org/2000/svg">
  <defs>
    <pattern id="diag-hero" patternUnits="userSpaceOnUse" width="14" height="14" patternTransform="rotate(45)">
      <line x1="0" y1="0" x2="0" y2="14" stroke="#E9E1D8" stroke-width="4"/>
    </pattern>
    <linearGradient id="hero-glow" x1="740" y1="0" x2="740" y2="920" gradientUnits="userSpaceOnUse">
      <stop stop-color="#FFF7F5"/>
      <stop offset="1" stop-color="#FAF7F2"/>
    </linearGradient>
  </defs>

  <rect x="38" y="94" width="1404" height="84" fill="#FCFAF7" stroke="#EAE3DB"/>
  <circle cx="86" cy="136" r="7" fill="#FF4538"/>
  <circle cx="112" cy="136" r="7" fill="#E2D9CF"/>
  <circle cx="138" cy="136" r="7" fill="#E2D9CF"/>
  <rect x="1162" y="118" width="220" height="36" rx="18" fill="#FFF2F0" stroke="#FFD7D2"/>
  <rect x="1188" y="130" width="76" height="12" rx="6" fill="#111111"/>
  <rect x="1274" y="130" width="80" height="12" rx="6" fill="#FF4538"/>

  <rect x="78" y="218" width="228" height="548" fill="#FBF8F4" stroke="#EAE3DB"/>
  <rect x="118" y="256" width="112" height="12" rx="6" fill="#111111"/>
  <rect x="118" y="286" width="90" height="10" rx="5" fill="#C6BDB3"/>
  <rect x="118" y="338" width="148" height="92" rx="18" fill="#FFFFFF" stroke="#ECE5DD"/>
  <rect x="142" y="366" width="88" height="11" rx="5.5" fill="#111111"/>
  <rect x="142" y="394" width="98" height="9" rx="4.5" fill="#D4CBC2"/>
  <rect x="118" y="454" width="148" height="92" rx="18" fill="#FFFFFF" stroke="#ECE5DD"/>
  <rect x="142" y="482" width="94" height="11" rx="5.5" fill="#111111"/>
  <rect x="142" y="510" width="84" height="9" rx="4.5" fill="#D4CBC2"/>
  <rect x="118" y="570" width="148" height="140" rx="18" fill="#FFF1EF"/>
  <rect x="142" y="602" width="82" height="11" rx="5.5" fill="#111111"/>
  <rect x="142" y="630" width="96" height="9" rx="4.5" fill="#D59A93"/>
  <rect x="142" y="662" width="74" height="36" rx="12" fill="#FF4538"/>

  <rect x="306" y="218" width="856" height="548" fill="#FFFFFF" stroke="#EAE3DB"/>
  <line x1="306.5" y1="476" x2="1161.5" y2="476" stroke="#EAE3DB"/>
  <line x1="872.5" y1="218" x2="872.5" y2="766" stroke="#EAE3DB"/>

  <rect x="352" y="258" width="466" height="170" rx="24" fill="#FCFAF7" stroke="#ECE5DD"/>
  <rect x="388" y="296" width="146" height="12" rx="6" fill="#111111"/>
  <rect x="388" y="328" width="116" height="10" rx="5" fill="#C6BDB3"/>
  <rect x="388" y="376" width="168" height="16" rx="8" fill="#E3DAD2"/>
  <rect x="568" y="364" width="200" height="40" rx="14" fill="#111111"/>
  <rect x="594" y="378" width="98" height="12" rx="6" fill="#FFFFFF"/>

  <rect x="918" y="258" width="198" height="170" rx="24" fill="#111111"/>
  <rect x="952" y="296" width="82" height="12" rx="6" fill="#FFFFFF"/>
  <rect x="952" y="328" width="122" height="10" rx="5" fill="#737883"/>
  <rect x="952" y="378" width="128" height="12" rx="6" fill="#FF4538"/>

  <rect x="352" y="520" width="478" height="198" rx="24" fill="#FFFFFF" stroke="#ECE5DD"/>
  <rect x="388" y="558" width="154" height="12" rx="6" fill="#111111"/>
  <rect x="388" y="590" width="244" height="10" rx="5" fill="#CAC1B8"/>
  <rect x="388" y="620" width="278" height="10" rx="5" fill="#E1D8CE"/>
  <rect x="388" y="656" width="116" height="40" rx="13" fill="#FF4538"/>
  <path d="M558 662C588 642 620 632 654 632C696 632 732 644 776 670" stroke="#1A1A1A" stroke-width="4" stroke-linecap="round"/>

  <rect x="902" y="520" width="214" height="198" rx="24" fill="#FBF8F4" stroke="#ECE5DD"/>
  <rect x="934" y="556" width="90" height="12" rx="6" fill="#111111"/>
  <rect x="934" y="590" width="124" height="10" rx="5" fill="#C8BFB6"/>
  <rect x="934" y="628" width="150" height="58" rx="16" fill="#FFFFFF" stroke="#ECE5DD"/>
  <rect x="958" y="650" width="92" height="10" rx="5" fill="#111111"/>

  <rect x="1162" y="218" width="240" height="548" fill="#FCFAF7" stroke="#EAE3DB"/>
  <rect x="1202" y="254" width="114" height="12" rx="6" fill="#111111"/>
  <rect x="1202" y="286" width="92" height="10" rx="5" fill="#C5BCB2"/>
  <rect x="1202" y="338" width="160" height="112" rx="20" fill="#FFFFFF" stroke="#ECE5DD"/>
  <rect x="1230" y="366" width="106" height="11" rx="5.5" fill="#111111"/>
  <rect x="1230" y="394" width="88" height="9" rx="4.5" fill="#CEC5BC"/>
  <rect x="1230" y="420" width="96" height="9" rx="4.5" fill="#E1D8CF"/>
  <rect x="1202" y="480" width="160" height="136" rx="20" fill="#FFF2F0" stroke="#FFD9D4"/>
  <rect x="1230" y="516" width="102" height="11" rx="5.5" fill="#111111"/>
  <rect x="1230" y="544" width="92" height="9" rx="4.5" fill="#DDA29B"/>
  <rect x="1230" y="572" width="108" height="9" rx="4.5" fill="#E6B7B0"/>
  <rect x="1230" y="604" width="84" height="34" rx="12" fill="#FF4538"/>
  <rect x="1190" y="354" width="18" height="188" rx="9" fill="#FF4538"/>
</svg>
