<svg width="1400" height="620" viewBox="0 0 1400 620" fill="none" xmlns="http://www.w3.org/2000/svg">
  <defs>
    <pattern id="diag-knowledge" patternUnits="userSpaceOnUse" width="14" height="14" patternTransform="rotate(45)">
      <line x1="0" y1="0" x2="0" y2="14" stroke="#E8E1D8" stroke-width="4"/>
    </pattern>
  </defs>

  <rect width="1400" height="620" fill="#FAF7F3"/>
  <rect x="28" y="34" width="1344" height="552" rx="28" fill="#FFFFFF" stroke="#EAE3DB"/>
  <line x1="448.5" y1="34" x2="448.5" y2="586" stroke="#EAE3DB"/>
  <rect x="450" y="34" width="880" height="44" fill="url(#diag-knowledge)"/>
  <rect x="450" y="542" width="880" height="44" fill="url(#diag-knowledge)"/>
  <rect x="450" y="78" width="38" height="464" fill="url(#diag-knowledge)"/>
  <rect x="1292" y="78" width="38" height="464" fill="url(#diag-knowledge)"/>

  <rect x="86" y="112" width="278" height="78" rx="20" fill="#FFFFFF" stroke="#ECE5DD"/>
  <rect x="114" y="138" width="108" height="10" rx="5" fill="#111111"/>
  <rect x="114" y="164" width="120" height="8" rx="4" fill="#C7BEB4"/>

  <rect x="86" y="214" width="278" height="78" rx="20" fill="#FFFFFF" stroke="#ECE5DD"/>
  <rect x="114" y="240" width="128" height="10" rx="5" fill="#111111"/>
  <rect x="114" y="266" width="96" height="8" rx="4" fill="#C7BEB4"/>

  <rect x="86" y="316" width="278" height="78" rx="20" fill="#FFFFFF" stroke="#ECE5DD"/>
  <rect x="114" y="342" width="142" height="10" rx="5" fill="#111111"/>
  <rect x="114" y="368" width="108" height="8" rx="4" fill="#C7BEB4"/>

  <rect x="86" y="418" width="278" height="78" rx="20" fill="#FFF2F0" stroke="#FFD8D3"/>
  <rect x="114" y="444" width="122" height="10" rx="5" fill="#111111"/>
  <rect x="114" y="470" width="86" height="8" rx="4" fill="#D59D96"/>

  <rect x="526" y="124" width="306" height="138" rx="24" fill="#FFFFFF" stroke="#ECE5DD"/>
  <rect x="560" y="160" width="112" height="12" rx="6" fill="#111111"/>
  <rect x="560" y="192" width="170" height="10" rx="5" fill="#C8BFB6"/>
  <rect x="560" y="226" width="130" height="36" rx="12" fill="#FF4538"/>

  <rect x="874" y="124" width="306" height="138" rx="24" fill="#FCFAF7" stroke="#ECE5DD"/>
  <rect x="908" y="160" width="128" height="12" rx="6" fill="#111111"/>
  <rect x="908" y="192" width="154" height="10" rx="5" fill="#C8BFB6"/>
  <rect x="908" y="224" width="194" height="14" rx="7" fill="#E4DBD2"/>

  <rect x="526" y="304" width="306" height="138" rx="24" fill="#FCFAF7" stroke="#ECE5DD"/>
  <rect x="560" y="340" width="120" height="12" rx="6" fill="#111111"/>
  <rect x="560" y="372" width="148" height="10" rx="5" fill="#C8BFB6"/>
  <circle cx="744" cy="372" r="30" fill="#FFF1EF"/>
  <circle cx="744" cy="372" r="12" fill="#FF4538"/>

  <rect x="874" y="304" width="306" height="138" rx="24" fill="#FFFFFF" stroke="#ECE5DD"/>
  <rect x="908" y="340" width="142" height="12" rx="6" fill="#111111"/>
  <rect x="908" y="372" width="172" height="10" rx="5" fill="#C8BFB6"/>
  <path d="M908 412H1090" stroke="#111111" stroke-width="4" stroke-linecap="round"/>
  <path d="M908 412C946 394 980 388 1012 388C1048 388 1076 396 1090 404" stroke="#FF4538" stroke-width="3" stroke-linecap="round"/>
</svg>
