<svg width="760" height="980" viewBox="0 0 760 980" fill="none" xmlns="http://www.w3.org/2000/svg">
  <defs>
    <pattern id="diag-portrait" patternUnits="userSpaceOnUse" width="12" height="12" patternTransform="rotate(45)">
      <line x1="0" y1="0" x2="0" y2="12" stroke="#E9E1D8" stroke-width="3.5"/>
    </pattern>
  </defs>

  <rect width="760" height="980" fill="#F0E8DF"/>
  <rect x="42" y="40" width="676" height="900" rx="28" fill="#FFFFFF" stroke="#E8E1D8"/>
  <rect x="42" y="40" width="676" height="44" fill="url(#diag-portrait)"/>
  <rect x="42" y="896" width="676" height="44" fill="url(#diag-portrait)"/>

  <rect x="96" y="126" width="568" height="292" rx="26" fill="#FCFAF7" stroke="#ECE5DD"/>
  <circle cx="230" cy="272" r="82" fill="#FFF1EF"/>
  <circle cx="230" cy="252" r="36" fill="#D6A48C"/>
  <path d="M142 344C142 296 180 258 228 258H232C280 258 318 296 318 344V354H142V344Z" fill="#C87A4A"/>
  <rect x="364" y="184" width="170" height="14" rx="7" fill="#111111"/>
  <rect x="364" y="220" width="146" height="10" rx="5" fill="#C6BDB3"/>
  <rect x="364" y="272" width="234" height="64" rx="18" fill="#FFFFFF" stroke="#ECE5DD"/>
  <rect x="390" y="296" width="102" height="10" rx="5" fill="#111111"/>
  <rect x="390" y="320" width="126" height="8" rx="4" fill="#D5CCC3"/>

  <line x1="96" y1="468.5" x2="664" y2="468.5" stroke="#E8E1D8"/>
  <rect x="96" y="516" width="568" height="116" rx="22" fill="#FFFFFF" stroke="#ECE5DD"/>
  <rect x="96" y="516" width="568" height="30" fill="url(#diag-portrait)"/>
  <rect x="128" y="570" width="122" height="12" rx="6" fill="#111111"/>
  <rect x="128" y="602" width="184" height="10" rx="5" fill="#C8BFB6"/>
  <rect x="536" y="566" width="88" height="34" rx="12" fill="#FF4538"/>

  <rect x="96" y="656" width="568" height="172" rx="22" fill="#FCFAF7" stroke="#ECE5DD"/>
  <rect x="128" y="698" width="120" height="12" rx="6" fill="#111111"/>
  <rect x="128" y="730" width="210" height="10" rx="5" fill="#C8BFB6"/>
  <rect x="128" y="762" width="180" height="10" rx="5" fill="#E1D9CF"/>
  <rect x="448" y="694" width="176" height="96" rx="18" fill="#FFF2F0" stroke="#FFD7D2"/>
  <rect x="474" y="724" width="96" height="10" rx="5" fill="#111111"/>
  <rect x="474" y="750" width="118" height="8" rx="4" fill="#D8A7A0"/>
</svg>
