<svg width="1200" height="900" viewBox="0 0 1200 900" fill="none" xmlns="http://www.w3.org/2000/svg">
  <defs>
    <pattern id="diag-solution" patternUnits="userSpaceOnUse" width="14" height="14" patternTransform="rotate(45)">
      <line x1="0" y1="0" x2="0" y2="14" stroke="#E9E1D8" stroke-width="4"/>
    </pattern>
  </defs>

  <rect width="1200" height="900" fill="#FAF7F3"/>
  <rect x="54" y="70" width="1092" height="760" rx="28" fill="#FFFFFF" stroke="#E9E2DA"/>
  <rect x="54" y="70" width="1092" height="48" fill="url(#diag-solution)"/>
  <rect x="54" y="782" width="1092" height="48" fill="url(#diag-solution)"/>

  <line x1="600.5" y1="118" x2="600.5" y2="782" stroke="#E9E2DA"/>
  <line x1="54" y1="450.5" x2="1146" y2="450.5" stroke="#E9E2DA"/>

  <rect x="108" y="166" width="382" height="228" rx="24" fill="#FCFAF7" stroke="#ECE5DD"/>
  <rect x="142" y="200" width="150" height="12" rx="6" fill="#111111"/>
  <rect x="142" y="230" width="118" height="10" rx="5" fill="#C7BEB4"/>
  <rect x="142" y="278" width="136" height="84" rx="18" fill="#FFFFFF" stroke="#ECE5DD"/>
  <rect x="164" y="304" width="82" height="10" rx="5" fill="#111111"/>
  <rect x="164" y="330" width="92" height="8" rx="4" fill="#D7CEC5"/>
  <rect x="296" y="278" width="160" height="84" rx="18" fill="#FFF2F0" stroke="#FFD8D3"/>
  <rect x="318" y="304" width="92" height="10" rx="5" fill="#111111"/>
  <rect x="318" y="330" width="104" height="8" rx="4" fill="#D59E97"/>

  <rect x="654" y="166" width="438" height="228" rx="24" fill="#FFFFFF" stroke="#ECE5DD"/>
  <circle cx="872" cy="278" r="72" fill="#FFF4F2" stroke="#FFD3CD"/>
  <rect x="848" y="254" width="48" height="48" rx="14" fill="#FF4538"/>
  <rect x="712" y="214" width="110" height="48" rx="18" fill="#FFFFFF" stroke="#ECE5DD"/>
  <rect x="738" y="232" width="58" height="10" rx="5" fill="#111111"/>
  <rect x="922" y="214" width="110" height="48" rx="18" fill="#FFFFFF" stroke="#ECE5DD"/>
  <rect x="948" y="232" width="58" height="10" rx="5" fill="#111111"/>
  <rect x="712" y="308" width="110" height="48" rx="18" fill="#FFFFFF" stroke="#ECE5DD"/>
  <rect x="738" y="326" width="58" height="10" rx="5" fill="#111111"/>
  <rect x="922" y="308" width="110" height="48" rx="18" fill="#FFFFFF" stroke="#ECE5DD"/>
  <rect x="948" y="326" width="58" height="10" rx="5" fill="#111111"/>
  <path d="M822 238C840 248 850 256 864 272" stroke="#FFB1A9" stroke-width="3" stroke-linecap="round" stroke-dasharray="1 9"/>
  <path d="M922 238C902 248 894 254 882 272" stroke="#FFB1A9" stroke-width="3" stroke-linecap="round" stroke-dasharray="1 9"/>
  <path d="M822 332C840 324 850 314 864 292" stroke="#FFB1A9" stroke-width="3" stroke-linecap="round" stroke-dasharray="1 9"/>
  <path d="M922 332C904 324 894 314 882 292" stroke="#FFB1A9" stroke-width="3" stroke-linecap="round" stroke-dasharray="1 9"/>

  <rect x="108" y="506" width="382" height="224" rx="24" fill="#FFFFFF" stroke="#ECE5DD"/>
  <rect x="142" y="540" width="122" height="12" rx="6" fill="#111111"/>
  <rect x="142" y="570" width="102" height="10" rx="5" fill="#C7BEB4"/>
  <rect x="142" y="622" width="316" height="72" rx="18" fill="#FCFAF7" stroke="#ECE5DD"/>
  <rect x="166" y="648" width="142" height="10" rx="5" fill="#111111"/>
  <rect x="166" y="674" width="210" height="8" rx="4" fill="#D8CFC6"/>
  <rect x="330" y="544" width="128" height="42" rx="14" fill="#111111"/>
  <rect x="358" y="560" width="72" height="10" rx="5" fill="#FFFFFF"/>

  <rect x="654" y="506" width="438" height="224" rx="24" fill="#FCFAF7" stroke="#ECE5DD"/>
  <rect x="654" y="506" width="438" height="40" fill="url(#diag-solution)"/>
  <rect x="694" y="570" width="126" height="12" rx="6" fill="#111111"/>
  <rect x="694" y="602" width="110" height="10" rx="5" fill="#C7BEB4"/>
  <rect x="694" y="646" width="152" height="38" rx="13" fill="#FF4538"/>
  <rect x="884" y="568" width="172" height="32" rx="16" fill="#FFFFFF" stroke="#ECE5DD"/>
  <rect x="912" y="579" width="66" height="10" rx="5" fill="#111111"/>
  <rect x="884" y="618" width="172" height="32" rx="16" fill="#FFFFFF" stroke="#ECE5DD"/>
  <rect x="912" y="629" width="84" height="10" rx="5" fill="#111111"/>
  <rect x="884" y="668" width="172" height="32" rx="16" fill="#FFFFFF" stroke="#ECE5DD"/>
  <rect x="912" y="679" width="72" height="10" rx="5" fill="#111111"/>
</svg>
